<mxfile host="65bd71144e">
    <diagram id="hC7x6vbd3e9sCB8pJhb9" name="Página-1">
        <mxGraphModel dx="772" dy="342" grid="0" gridSize="10" guides="1" tooltips="1" connect="1" arrows="1" fold="1" page="1" pageScale="1" pageWidth="827" pageHeight="1169" math="0" shadow="0">
            <root>
                <mxCell id="0"/>
                <mxCell id="1" parent="0"/>
                <mxCell id="6" value="" style="edgeStyle=none;html=1;" edge="1" parent="1" source="2" target="4">
                    <mxGeometry relative="1" as="geometry"/>
                </mxCell>
                <mxCell id="2" value="Jogador Entity" style="rounded=1;whiteSpace=wrap;html=1;strokeColor=#66FF66;strokeWidth=3;" vertex="1" parent="1">
                    <mxGeometry x="239" y="30" width="120" height="140" as="geometry"/>
                </mxCell>
                <mxCell id="8" style="edgeStyle=none;html=1;exitX=1;exitY=0.5;exitDx=0;exitDy=0;entryX=0;entryY=0.5;entryDx=0;entryDy=0;" edge="1" parent="1" source="3" target="2">
                    <mxGeometry relative="1" as="geometry"/>
                </mxCell>
                <mxCell id="3" value="Clube Entity" style="rounded=1;whiteSpace=wrap;html=1;strokeColor=#3333FF;strokeWidth=4;" vertex="1" parent="1">
                    <mxGeometry x="30" y="30" width="120" height="140" as="geometry"/>
                </mxCell>
                <mxCell id="4" value="Actions" style="rounded=1;whiteSpace=wrap;html=1;strokeColor=#FFFF33;strokeWidth=4;" vertex="1" parent="1">
                    <mxGeometry x="470" y="27" width="120" height="140" as="geometry"/>
                </mxCell>
                <mxCell id="7" value="1:N" style="text;html=1;align=center;verticalAlign=middle;resizable=0;points=[];autosize=1;strokeColor=none;fillColor=none;" vertex="1" parent="1">
                    <mxGeometry x="399" y="79" width="29" height="18" as="geometry"/>
                </mxCell>
                <mxCell id="9" value="1:N" style="text;html=1;align=center;verticalAlign=middle;resizable=0;points=[];autosize=1;strokeColor=none;fillColor=none;" vertex="1" parent="1">
                    <mxGeometry x="173" y="84" width="29" height="18" as="geometry"/>
                </mxCell>
                <mxCell id="12" value="" style="edgeStyle=none;html=1;" edge="1" parent="1" source="10" target="11">
                    <mxGeometry relative="1" as="geometry"/>
                </mxCell>
                <mxCell id="10" value="User Entity" style="rounded=1;whiteSpace=wrap;html=1;strokeColor=#4C0099;strokeWidth=4;" vertex="1" parent="1">
                    <mxGeometry x="30" y="212" width="120" height="140" as="geometry"/>
                </mxCell>
                <mxCell id="11" value="Produtos Entity" style="rounded=1;whiteSpace=wrap;html=1;strokeColor=#3333FF;strokeWidth=4;" vertex="1" parent="1">
                    <mxGeometry x="249" y="212" width="120" height="140" as="geometry"/>
                </mxCell>
                <mxCell id="13" value="N:N" style="text;html=1;align=center;verticalAlign=middle;resizable=0;points=[];autosize=1;strokeColor=none;fillColor=none;" vertex="1" parent="1">
                    <mxGeometry x="184" y="265" width="31" height="18" as="geometry"/>
                </mxCell>
                <mxCell id="16" style="edgeStyle=none;html=1;exitX=1;exitY=0.5;exitDx=0;exitDy=0;entryX=0;entryY=0.5;entryDx=0;entryDy=0;" edge="1" parent="1" source="14" target="15">
                    <mxGeometry relative="1" as="geometry"/>
                </mxCell>
                <mxCell id="14" value="Email Entity" style="rounded=1;whiteSpace=wrap;html=1;strokeColor=#4C0099;strokeWidth=4;" vertex="1" parent="1">
                    <mxGeometry x="37" y="378" width="120" height="140" as="geometry"/>
                </mxCell>
                <mxCell id="15" value="Endereço" style="rounded=1;whiteSpace=wrap;html=1;strokeColor=#99FFFF;strokeWidth=4;" vertex="1" parent="1">
                    <mxGeometry x="244" y="378" width="120" height="140" as="geometry"/>
                </mxCell>
                <mxCell id="17" value="1:1" style="text;html=1;align=center;verticalAlign=middle;resizable=0;points=[];autosize=1;strokeColor=none;fillColor=none;" vertex="1" parent="1">
                    <mxGeometry x="180" y="430" width="27" height="18" as="geometry"/>
                </mxCell>
            </root>
        </mxGraphModel>
    </diagram>
</mxfile>